<svg id="visual" viewBox="0 0 1600 900" width="1600" height="900" xmlns="http://www.w3.org/2000/svg" xmlns:xlink="http://www.w3.org/1999/xlink" version="1.1"><rect x="0" y="0" width="1600" height="900" fill="#001122"></rect><defs><linearGradient id="grad1_0" x1="43.8%" y1="0%" x2="100%" y2="100%"><stop offset="14.444444444444446%" stop-color="#565656" stop-opacity="1"></stop><stop offset="85.55555555555554%" stop-color="#565656" stop-opacity="1"></stop></linearGradient></defs><defs><linearGradient id="grad1_1" x1="43.8%" y1="0%" x2="100%" y2="100%"><stop offset="14.444444444444446%" stop-color="#565656" stop-opacity="1"></stop><stop offset="85.55555555555554%" stop-color="#4a4b4e" stop-opacity="1"></stop></linearGradient></defs><defs><linearGradient id="grad1_2" x1="43.8%" y1="0%" x2="100%" y2="100%"><stop offset="14.444444444444446%" stop-color="#3e4147" stop-opacity="1"></stop><stop offset="85.55555555555554%" stop-color="#4a4b4e" stop-opacity="1"></stop></linearGradient></defs><defs><linearGradient id="grad1_3" x1="43.8%" y1="0%" x2="100%" y2="100%"><stop offset="14.444444444444446%" stop-color="#3e4147" stop-opacity="1"></stop><stop offset="85.55555555555554%" stop-color="#32373f" stop-opacity="1"></stop></linearGradient></defs><defs><linearGradient id="grad1_4" x1="43.8%" y1="0%" x2="100%" y2="100%"><stop offset="14.444444444444446%" stop-color="#262d38" stop-opacity="1"></stop><stop offset="85.55555555555554%" stop-color="#32373f" stop-opacity="1"></stop></linearGradient></defs><defs><linearGradient id="grad1_5" x1="43.8%" y1="0%" x2="100%" y2="100%"><stop offset="14.444444444444446%" stop-color="#262d38" stop-opacity="1"></stop><stop offset="85.55555555555554%" stop-color="#1b2430" stop-opacity="1"></stop></linearGradient></defs><defs><linearGradient id="grad1_6" x1="43.8%" y1="0%" x2="100%" y2="100%"><stop offset="14.444444444444446%" stop-color="#0f1b29" stop-opacity="1"></stop><stop offset="85.55555555555554%" stop-color="#1b2430" stop-opacity="1"></stop></linearGradient></defs><defs><linearGradient id="grad1_7" x1="43.8%" y1="0%" x2="100%" y2="100%"><stop offset="14.444444444444446%" stop-color="#0f1b29" stop-opacity="1"></stop><stop offset="85.55555555555554%" stop-color="#001122" stop-opacity="1"></stop></linearGradient></defs><defs><linearGradient id="grad2_0" x1="0%" y1="0%" x2="56.3%" y2="100%"><stop offset="14.444444444444446%" stop-color="#565656" stop-opacity="1"></stop><stop offset="85.55555555555554%" stop-color="#565656" stop-opacity="1"></stop></linearGradient></defs><defs><linearGradient id="grad2_1" x1="0%" y1="0%" x2="56.3%" y2="100%"><stop offset="14.444444444444446%" stop-color="#4a4b4e" stop-opacity="1"></stop><stop offset="85.55555555555554%" stop-color="#565656" stop-opacity="1"></stop></linearGradient></defs><defs><linearGradient id="grad2_2" x1="0%" y1="0%" x2="56.3%" y2="100%"><stop offset="14.444444444444446%" stop-color="#4a4b4e" stop-opacity="1"></stop><stop offset="85.55555555555554%" stop-color="#3e4147" stop-opacity="1"></stop></linearGradient></defs><defs><linearGradient id="grad2_3" x1="0%" y1="0%" x2="56.3%" y2="100%"><stop offset="14.444444444444446%" stop-color="#32373f" stop-opacity="1"></stop><stop offset="85.55555555555554%" stop-color="#3e4147" stop-opacity="1"></stop></linearGradient></defs><defs><linearGradient id="grad2_4" x1="0%" y1="0%" x2="56.3%" y2="100%"><stop offset="14.444444444444446%" stop-color="#32373f" stop-opacity="1"></stop><stop offset="85.55555555555554%" stop-color="#262d38" stop-opacity="1"></stop></linearGradient></defs><defs><linearGradient id="grad2_5" x1="0%" y1="0%" x2="56.3%" y2="100%"><stop offset="14.444444444444446%" stop-color="#1b2430" stop-opacity="1"></stop><stop offset="85.55555555555554%" stop-color="#262d38" stop-opacity="1"></stop></linearGradient></defs><defs><linearGradient id="grad2_6" x1="0%" y1="0%" x2="56.3%" y2="100%"><stop offset="14.444444444444446%" stop-color="#1b2430" stop-opacity="1"></stop><stop offset="85.55555555555554%" stop-color="#0f1b29" stop-opacity="1"></stop></linearGradient></defs><defs><linearGradient id="grad2_7" x1="0%" y1="0%" x2="56.3%" y2="100%"><stop offset="14.444444444444446%" stop-color="#001122" stop-opacity="1"></stop><stop offset="85.55555555555554%" stop-color="#0f1b29" stop-opacity="1"></stop></linearGradient></defs><g transform="translate(1600, 0)"><path d="M0 675C-73.9 621.3 -147.8 567.6 -220 531.2C-292.3 494.8 -362.8 475.7 -435.6 435.6C-508.3 395.5 -583.3 334.4 -623.6 258.3C-663.9 182.2 -669.4 91.1 -675 0L0 0Z" fill="#081625"></path><path d="M0 590.6C-64.7 543.7 -129.3 496.7 -192.5 464.8C-255.7 433 -317.5 416.2 -381.1 381.1C-444.8 346 -510.4 292.6 -545.7 226C-580.9 159.4 -585.8 79.7 -590.6 0L0 0Z" fill="#151f2d"></path><path d="M0 506.3C-55.4 466 -110.9 425.7 -165 398.4C-219.2 371.1 -272.1 356.8 -326.7 326.7C-381.3 296.6 -437.5 250.8 -467.7 193.7C-497.9 136.7 -502.1 68.3 -506.2 0L0 0Z" fill="#212834"></path><path d="M0 421.9C-46.2 388.3 -92.4 354.8 -137.5 332C-182.7 309.3 -226.8 297.3 -272.2 272.2C-317.7 247.2 -364.6 209 -389.8 161.4C-414.9 113.9 -418.4 56.9 -421.9 0L0 0Z" fill="#2c323b"></path><path d="M0 337.5C-37 310.7 -73.9 283.8 -110 265.6C-146.1 247.4 -181.4 237.8 -217.8 217.8C-254.2 197.7 -291.7 167.2 -311.8 129.2C-331.9 91.1 -334.7 45.6 -337.5 0L0 0Z" fill="#383c43"></path><path d="M0 253.1C-27.7 233 -55.4 212.9 -82.5 199.2C-109.6 185.6 -136.1 178.4 -163.3 163.3C-190.6 148.3 -218.8 125.4 -233.9 96.9C-249 68.3 -251 34.2 -253.1 0L0 0Z" fill="#44464a"></path><path d="M0 168.8C-18.5 155.3 -37 141.9 -55 132.8C-73.1 123.7 -90.7 118.9 -108.9 108.9C-127.1 98.9 -145.8 83.6 -155.9 64.6C-166 45.6 -167.4 22.8 -168.7 0L0 0Z" fill="#505152"></path><path d="M0 84.4C-9.2 77.7 -18.5 71 -27.5 66.4C-36.5 61.9 -45.4 59.5 -54.4 54.4C-63.5 49.4 -72.9 41.8 -78 32.3C-83 22.8 -83.7 11.4 -84.4 0L0 0Z" fill="#565656"></path></g><g transform="translate(0, 900)"><path d="M0 -675C73.6 -634.9 147.1 -594.8 236.1 -570C325.1 -545.3 429.6 -535.8 477.3 -477.3C525 -418.8 516 -311.2 539.5 -223.5C563 -135.8 619 -67.9 675 0L0 0Z" fill="#081625"></path><path d="M0 -590.6C64.4 -555.5 128.7 -520.5 206.6 -498.8C284.5 -477.1 375.9 -468.8 417.6 -417.6C459.4 -366.4 451.5 -272.3 472.1 -195.6C492.7 -118.8 541.6 -59.4 590.6 0L0 0Z" fill="#151f2d"></path><path d="M0 -506.2C55.2 -476.2 110.3 -446.1 177.1 -427.5C243.8 -408.9 322.2 -401.9 358 -358C393.8 -314.1 387 -233.4 404.7 -167.6C422.3 -101.8 464.3 -50.9 506.3 0L0 0Z" fill="#212834"></path><path d="M0 -421.9C46 -396.8 91.9 -371.8 147.6 -356.3C203.2 -340.8 268.5 -334.9 298.3 -298.3C328.1 -261.7 322.5 -194.5 337.2 -139.7C351.9 -84.9 386.9 -42.4 421.9 0L0 0Z" fill="#2c323b"></path><path d="M0 -337.5C36.8 -317.5 73.6 -297.4 118.1 -285C162.6 -272.6 214.8 -267.9 238.6 -238.6C262.5 -209.4 258 -155.6 269.8 -111.7C281.5 -67.9 309.5 -33.9 337.5 0L0 0Z" fill="#383c43"></path><path d="M0 -253.1C27.6 -238.1 55.2 -223.1 88.5 -213.8C121.9 -204.5 161.1 -200.9 179 -179C196.9 -157 193.5 -116.7 202.3 -83.8C211.1 -50.9 232.1 -25.5 253.1 0L0 0Z" fill="#44464a"></path><path d="M0 -168.7C18.4 -158.7 36.8 -148.7 59 -142.5C81.3 -136.3 107.4 -134 119.3 -119.3C131.3 -104.7 129 -77.8 134.9 -55.9C140.8 -33.9 154.8 -17 168.8 0L0 0Z" fill="#505152"></path><path d="M0 -84.4C9.2 -79.4 18.4 -74.4 29.5 -71.3C40.6 -68.2 53.7 -67 59.7 -59.7C65.6 -52.3 64.5 -38.9 67.4 -27.9C70.4 -17 77.4 -8.5 84.4 0L0 0Z" fill="#565656"></path></g></svg>