<svg id="visual" viewBox="0 0 1920 1080" width="1920" height="1080" xmlns="http://www.w3.org/2000/svg" xmlns:xlink="http://www.w3.org/1999/xlink" version="1.1"><rect x="0" y="0" width="1920" height="1080" fill="#1a1c2d"></rect><defs><linearGradient id="grad1_0" x1="43.8%" y1="0%" x2="100%" y2="100%"><stop offset="14.444444444444446%" stop-color="#293348" stop-opacity="1"></stop><stop offset="85.55555555555554%" stop-color="#293348" stop-opacity="1"></stop></linearGradient></defs><defs><linearGradient id="grad1_1" x1="43.8%" y1="0%" x2="100%" y2="100%"><stop offset="14.444444444444446%" stop-color="#293348" stop-opacity="1"></stop><stop offset="85.55555555555554%" stop-color="#262e42" stop-opacity="1"></stop></linearGradient></defs><defs><linearGradient id="grad1_2" x1="43.8%" y1="0%" x2="100%" y2="100%"><stop offset="14.444444444444446%" stop-color="#232a3d" stop-opacity="1"></stop><stop offset="85.55555555555554%" stop-color="#262e42" stop-opacity="1"></stop></linearGradient></defs><defs><linearGradient id="grad1_3" x1="43.8%" y1="0%" x2="100%" y2="100%"><stop offset="14.444444444444446%" stop-color="#232a3d" stop-opacity="1"></stop><stop offset="85.55555555555554%" stop-color="#202538" stop-opacity="1"></stop></linearGradient></defs><defs><linearGradient id="grad1_4" x1="43.8%" y1="0%" x2="100%" y2="100%"><stop offset="14.444444444444446%" stop-color="#1d2032" stop-opacity="1"></stop><stop offset="85.55555555555554%" stop-color="#202538" stop-opacity="1"></stop></linearGradient></defs><defs><linearGradient id="grad1_5" x1="43.8%" y1="0%" x2="100%" y2="100%"><stop offset="14.444444444444446%" stop-color="#1d2032" stop-opacity="1"></stop><stop offset="85.55555555555554%" stop-color="#1a1c2d" stop-opacity="1"></stop></linearGradient></defs><defs><linearGradient id="grad2_0" x1="0%" y1="0%" x2="56.3%" y2="100%"><stop offset="14.444444444444446%" stop-color="#293348" stop-opacity="1"></stop><stop offset="85.55555555555554%" stop-color="#293348" stop-opacity="1"></stop></linearGradient></defs><defs><linearGradient id="grad2_1" x1="0%" y1="0%" x2="56.3%" y2="100%"><stop offset="14.444444444444446%" stop-color="#262e42" stop-opacity="1"></stop><stop offset="85.55555555555554%" stop-color="#293348" stop-opacity="1"></stop></linearGradient></defs><defs><linearGradient id="grad2_2" x1="0%" y1="0%" x2="56.3%" y2="100%"><stop offset="14.444444444444446%" stop-color="#262e42" stop-opacity="1"></stop><stop offset="85.55555555555554%" stop-color="#232a3d" stop-opacity="1"></stop></linearGradient></defs><defs><linearGradient id="grad2_3" x1="0%" y1="0%" x2="56.3%" y2="100%"><stop offset="14.444444444444446%" stop-color="#202538" stop-opacity="1"></stop><stop offset="85.55555555555554%" stop-color="#232a3d" stop-opacity="1"></stop></linearGradient></defs><defs><linearGradient id="grad2_4" x1="0%" y1="0%" x2="56.3%" y2="100%"><stop offset="14.444444444444446%" stop-color="#202538" stop-opacity="1"></stop><stop offset="85.55555555555554%" stop-color="#1d2032" stop-opacity="1"></stop></linearGradient></defs><defs><linearGradient id="grad2_5" x1="0%" y1="0%" x2="56.3%" y2="100%"><stop offset="14.444444444444446%" stop-color="#1a1c2d" stop-opacity="1"></stop><stop offset="85.55555555555554%" stop-color="#1d2032" stop-opacity="1"></stop></linearGradient></defs><g transform="translate(1920, 0)"><path d="M0 702C-32.8 678 -65.6 654 -103.4 652.9C-141.2 651.8 -184 673.6 -214.1 659.1C-244.3 644.6 -261.7 593.7 -291 571.1C-320.3 548.5 -361.5 554.2 -395 543.7C-428.5 533.1 -454.5 506.5 -483 483C-511.5 459.4 -542.5 439.1 -565.5 410.9C-588.5 382.7 -603.3 346.6 -607.7 309.6C-612 272.6 -605.9 234.6 -622 202.1C-638.1 169.6 -676.3 142.6 -693.4 109.8C-710.4 77.1 -706.2 38.5 -702 0L0 0Z" fill="#1c1e30"></path><path d="M0 585C-27.3 565 -54.7 545 -86.2 544.1C-117.7 543.1 -153.4 561.3 -178.5 549.2C-203.6 537.1 -218.1 494.8 -242.5 475.9C-266.9 457.1 -301.2 461.8 -329.2 453C-357.1 444.3 -378.7 422.1 -402.5 402.5C-426.2 382.9 -452.1 365.9 -471.3 342.4C-490.4 318.9 -502.8 288.9 -506.4 258C-510 227.2 -504.9 195.5 -518.3 168.4C-531.7 141.3 -563.6 118.8 -577.8 91.5C-592 64.2 -588.5 32.1 -585 0L0 0Z" fill="#1f2335"></path><path d="M0 468C-21.9 452 -43.7 436 -68.9 435.2C-94.1 434.5 -122.7 449.1 -142.8 439.4C-162.8 429.7 -174.5 395.8 -194 380.8C-213.5 365.7 -241 369.4 -263.3 362.4C-285.7 355.4 -303 337.6 -322 322C-341 306.3 -361.7 292.7 -377 273.9C-392.3 255.1 -402.2 231.1 -405.1 206.4C-408 181.7 -403.9 156.4 -414.7 134.7C-425.4 113.1 -450.9 95.1 -462.2 73.2C-473.6 51.4 -470.8 25.7 -468 0L0 0Z" fill="#22273a"></path><path d="M0 351C-16.4 339 -32.8 327 -51.7 326.4C-70.6 325.9 -92 336.8 -107.1 329.5C-122.1 322.3 -130.9 296.9 -145.5 285.6C-160.2 274.3 -180.7 277.1 -197.5 271.8C-214.3 266.6 -227.2 253.2 -241.5 241.5C-255.7 229.7 -271.3 219.5 -282.8 205.4C-294.2 191.3 -301.7 173.3 -303.8 154.8C-306 136.3 -303 117.3 -311 101C-319 84.8 -338.2 71.3 -346.7 54.9C-355.2 38.5 -353.1 19.3 -351 0L0 0Z" fill="#252c40"></path><path d="M0 234C-10.9 226 -21.9 218 -34.5 217.6C-47.1 217.3 -61.3 224.5 -71.4 219.7C-81.4 214.9 -87.2 197.9 -97 190.4C-106.8 182.8 -120.5 184.7 -131.7 181.2C-142.8 177.7 -151.5 168.8 -161 161C-170.5 153.1 -180.8 146.4 -188.5 137C-196.2 127.6 -201.1 115.5 -202.6 103.2C-204 90.9 -202 78.2 -207.3 67.4C-212.7 56.5 -225.4 47.5 -231.1 36.6C-236.8 25.7 -235.4 12.8 -234 0L0 0Z" fill="#283145"></path><path d="M0 117C-5.5 113 -10.9 109 -17.2 108.8C-23.5 108.6 -30.7 112.3 -35.7 109.8C-40.7 107.4 -43.6 99 -48.5 95.2C-53.4 91.4 -60.2 92.4 -65.8 90.6C-71.4 88.9 -75.7 84.4 -80.5 80.5C-85.2 76.6 -90.4 73.2 -94.3 68.5C-98.1 63.8 -100.6 57.8 -101.3 51.6C-102 45.4 -101 39.1 -103.7 33.7C-106.3 28.3 -112.7 23.8 -115.6 18.3C-118.4 12.8 -117.7 6.4 -117 0L0 0Z" fill="#293348"></path></g><g transform="translate(0, 1080)"><path d="M0 -702C34.5 -684.4 69 -666.8 104.5 -659.8C140 -652.8 176.4 -656.5 211.7 -651.5C246.9 -646.5 281 -632.8 314.2 -616.6C347.3 -600.3 379.7 -581.5 400.9 -551.7C422.1 -522 432.2 -481.2 454 -454C475.7 -426.7 509.2 -412.9 542 -393.8C574.9 -374.7 607.1 -350.3 625.5 -318.7C643.9 -287.1 648.3 -248.2 650.5 -211.4C652.7 -174.5 652.6 -139.6 660.8 -104.7C669 -69.8 685.5 -34.9 702 0L0 0Z" fill="#1c1e30"></path><path d="M0 -585C28.8 -570.3 57.5 -555.6 87.1 -549.8C116.6 -544 147 -547.1 176.4 -542.9C205.8 -538.7 234.1 -527.3 261.8 -513.8C289.5 -500.3 316.4 -484.6 334.1 -459.8C351.7 -435 360.2 -401 378.3 -378.3C396.5 -355.6 424.3 -344.1 451.7 -328.2C479.1 -312.3 505.9 -291.9 521.2 -265.6C536.5 -239.2 540.3 -206.9 542.1 -176.1C543.9 -145.4 543.8 -116.3 550.6 -87.2C557.5 -58.1 571.2 -29.1 585 0L0 0Z" fill="#1f2335"></path><path d="M0 -468C23 -456.3 46 -444.5 69.7 -439.9C93.3 -435.2 117.6 -437.6 141.1 -434.3C164.6 -431 187.3 -421.9 209.4 -411.1C231.6 -400.2 253.1 -387.7 267.2 -367.8C281.4 -348 288.1 -320.8 302.6 -302.6C317.2 -284.5 339.5 -275.3 361.4 -262.5C383.3 -249.8 404.7 -233.5 417 -212.5C429.2 -191.4 432.2 -165.5 433.7 -140.9C435.1 -116.3 435 -93 440.5 -69.8C446 -46.5 457 -23.3 468 0L0 0Z" fill="#22273a"></path><path d="M0 -351C17.3 -342.2 34.5 -333.4 52.2 -329.9C70 -326.4 88.2 -328.2 105.8 -325.7C123.5 -323.2 140.5 -316.4 157.1 -308.3C173.7 -300.2 189.8 -290.8 200.4 -275.9C211 -261 216.1 -240.6 227 -227C237.9 -213.3 254.6 -206.5 271 -196.9C287.4 -187.4 303.6 -175.2 312.7 -159.4C321.9 -143.5 324.2 -124.1 325.3 -105.7C326.4 -87.2 326.3 -69.8 330.4 -52.3C334.5 -34.9 342.7 -17.4 351 0L0 0Z" fill="#252c40"></path><path d="M0 -234C11.5 -228.1 23 -222.3 34.8 -219.9C46.7 -217.6 58.8 -218.8 70.6 -217.2C82.3 -215.5 93.7 -210.9 104.7 -205.5C115.8 -200.1 126.6 -193.8 133.6 -183.9C140.7 -174 144.1 -160.4 151.3 -151.3C158.6 -142.2 169.7 -137.6 180.7 -131.3C191.6 -124.9 202.4 -116.8 208.5 -106.2C214.6 -95.7 216.1 -82.7 216.8 -70.5C217.6 -58.2 217.5 -46.5 220.3 -34.9C223 -23.3 228.5 -11.6 234 0L0 0Z" fill="#283145"></path><path d="M0 -117C5.8 -114.1 11.5 -111.1 17.4 -110C23.3 -108.8 29.4 -109.4 35.3 -108.6C41.2 -107.7 46.8 -105.5 52.4 -102.8C57.9 -100.1 63.3 -96.9 66.8 -92C70.3 -87 72 -80.2 75.7 -75.7C79.3 -71.1 84.9 -68.8 90.3 -65.6C95.8 -62.5 101.2 -58.4 104.2 -53.1C107.3 -47.8 108.1 -41.4 108.4 -35.2C108.8 -29.1 108.8 -23.3 110.1 -17.4C111.5 -11.6 114.2 -5.8 117 0L0 0Z" fill="#293348"></path></g></svg>